# xmcd
#
# Track frame offsets: 
#        150
#        17607
#        35540
#        51356
#        70031
#        88807
#        102584
#        119240
#        136467
#        150465
#        165311
#        182768
#
# Disc length: 2724 seconds
#
# Revision: 0
# Processed by: cddbd v1.5.2PL0 Copyright (c) Steve Scherf et al.
# Submitted via: ExactAudioCopy v0.95b3
#
DISCID=a20aa20c
DTITLE=John Hammond - Push Comes To Shove
DYEAR=2007
DGENRE=Acoustic Blues
TTITLE0=Push Comes To Shove
TTITLE1=Come On In This House
TTITLE2=Mean Ol'Lonesome Train
TTITLE3=If You Wanna Rock and Roll
TTITLE4=I'm Tore Down
TTITLE5=Eyes Behind Your Head
TTITLE6=Butter
TTITLE7=Heartache Blues
TTITLE8=Everything Gonna Be Alright
TTITLE9=Take A Fool's Advice
TTITLE10=You Know That's Cold
TTITLE11=Cold Water
EXTD=
EXTT0=
EXTT1=
EXTT2=
EXTT3=
EXTT4=
EXTT5=
EXTT6=
EXTT7=
EXTT8=
EXTT9=
EXTT10=
EXTT11=
PLAYORDER=
